<?xml version="1.0" encoding="utf-8"?>
<!-- Generator: Adobe Illustrator 21.1.0, SVG Export Plug-In . SVG Version: 6.00 Build 0)  -->
<svg version="1.1" id="Layer_2" xmlns="http://www.w3.org/2000/svg" xmlns:xlink="http://www.w3.org/1999/xlink" x="0px" y="0px"
	 viewBox="0 0 200 529" style="enable-background:new 0 0 200 529;" xml:space="preserve">
<style type="text/css">
	.st0{fill:#212121;}
	.st1{fill:#DDDD9E;}
</style>
<rect x="0" y="23" class="st0" width="200" height="506"/>
<g>
	<rect x="24.5" y="64" class="st1" width="27" height="49"/>
	<rect x="65.8" y="64" class="st1" width="27" height="49"/>
	<rect x="107.2" y="64" class="st1" width="27" height="49"/>
	<rect x="148.5" y="64" class="st1" width="27" height="49"/>
</g>
<g>
	<rect x="24.5" y="141" class="st1" width="27" height="49"/>
	<rect x="65.8" y="141" class="st1" width="27" height="49"/>
	<rect x="107.2" y="141" class="st1" width="27" height="49"/>
	<rect x="148.5" y="141" class="st1" width="27" height="49"/>
</g>
<g>
	<rect x="24.5" y="218" class="st1" width="27" height="49"/>
	<rect x="65.8" y="218" class="st1" width="27" height="49"/>
	<rect x="107.2" y="218" class="st1" width="27" height="49"/>
	<rect x="148.5" y="218" class="st1" width="27" height="49"/>
</g>
<g>
	<rect x="24.5" y="295" class="st1" width="27" height="49"/>
	<rect x="65.8" y="295" class="st1" width="27" height="49"/>
	<rect x="107.2" y="295" class="st1" width="27" height="49"/>
	<rect x="148.5" y="295" class="st1" width="27" height="49"/>
</g>
<g>
	<rect x="24.5" y="372" class="st1" width="27" height="49"/>
	<rect x="65.8" y="372" class="st1" width="27" height="49"/>
	<rect x="107.2" y="372" class="st1" width="27" height="49"/>
	<rect x="148.5" y="372" class="st1" width="27" height="49"/>
</g>
<g>
	<rect x="24.5" y="449" class="st1" width="27" height="49"/>
	<rect x="65.8" y="449" class="st1" width="27" height="49"/>
	<rect x="107.2" y="449" class="st1" width="27" height="49"/>
	<rect x="148.5" y="449" class="st1" width="27" height="49"/>
</g>
<rect class="st0" width="200" height="11"/>
<rect x="9" y="9" class="st0" width="9" height="15"/>
<rect x="26.4" y="9" class="st0" width="9" height="15"/>
<rect x="43.8" y="9" class="st0" width="9" height="15"/>
<rect x="61.2" y="9" class="st0" width="9" height="15"/>
<rect x="78.6" y="9" class="st0" width="9" height="15"/>
<rect x="96" y="9" class="st0" width="9" height="15"/>
<rect x="113.4" y="9" class="st0" width="9" height="15"/>
<rect x="130.8" y="9" class="st0" width="9" height="15"/>
<rect x="148.2" y="9" class="st0" width="9" height="15"/>
<rect x="165.6" y="9" class="st0" width="9" height="15"/>
<rect x="183" y="9" class="st0" width="9" height="15"/>
</svg>
