<?xml version="1.0" encoding="utf-8"?>
<!-- Generator: Adobe Illustrator 21.1.0, SVG Export Plug-In . SVG Version: 6.00 Build 0)  -->
<svg version="1.1" id="Layer_2" xmlns="http://www.w3.org/2000/svg" xmlns:xlink="http://www.w3.org/1999/xlink" x="0px" y="0px"
	 viewBox="0 0 200 649" style="enable-background:new 0 0 200 649;" xml:space="preserve">
<style type="text/css">
	.st0{opacity:0.4;}
	.st1{fill:#EAE8E8;}
</style>
<rect x="0" class="st0" width="200" height="648"/>
<path class="st1" d="M53.9,318.2c4.2-0.7,21-6.6,22.6,4.5c0.6,4.1-5.8,10.7-5.8,10.7s4.9,2.4,7.5,0.9c2.6-1.5,2.6-4.8,6.2-3.8
	c1.7,0.4,1.5,2.4,1.5,2.4s2.1,1.1,3,0.4c0,0-1.5,1.7-2.8,1.5c-0.7-0.1-4.4,12.8-20.8,12.3c-5.9-0.2-11.6-2.5-16.1-6.4
	c-2.1-1.8-4.9-3.3-7.6-2.1c-5.3,2.4-9.4,5.3-9.4,5.3h0c-2.4-2.9-5.6-4.9-9.3-5.8l-1-0.2c0,0,13.6-12.6,35.8-7.5l0,0
	c1.6-3.8-2.2-3.7-5.4-3.8c-3.9-0.1-11.2-3.6-13.2-5.6c-1.7-1.7-3.1-4.7,0-3.8C40.1,317.5,49.7,318.9,53.9,318.2z"/>
<path class="st1" d="M142.9,244.2c4.2-0.7,21-6.6,22.6,4.5c0.6,4.1-5.8,10.7-5.8,10.7s4.9,2.4,7.5,0.9c2.6-1.5,2.6-4.8,6.2-3.8
	c1.7,0.4,1.5,2.4,1.5,2.4s2.1,1.1,3,0.4c0,0-1.5,1.7-2.8,1.5c-0.7-0.1-4.4,12.8-20.8,12.3c-5.9-0.2-11.6-2.5-16.1-6.4
	c-2.1-1.8-4.9-3.3-7.6-2.1c-5.3,2.4-9.4,5.3-9.4,5.3h0c-2.4-2.9-5.6-4.9-9.3-5.8l-1-0.2c0,0,13.6-12.6,35.8-7.5l0,0
	c1.6-3.8-2.2-3.7-5.4-3.8c-3.9-0.1-11.2-3.6-13.2-5.6c-1.7-1.7-3.1-4.7,0-3.8C129.1,243.5,138.7,244.9,142.9,244.2z"/>
<path class="st1" d="M49.9,110.2c4.2-0.7,21-6.6,22.6,4.5c0.6,4.1-5.8,10.7-5.8,10.7s4.9,2.4,7.5,0.9c2.6-1.5,2.6-4.8,6.2-3.8
	c1.7,0.4,1.5,2.4,1.5,2.4s2.1,1.1,3,0.4c0,0-1.5,1.7-2.8,1.5c-0.7-0.1-4.4,12.8-20.8,12.3c-5.9-0.2-11.6-2.5-16.1-6.4
	c-2.1-1.8-4.9-3.3-7.6-2.1c-5.3,2.4-9.4,5.3-9.4,5.3h0c-2.4-2.9-5.6-4.9-9.3-5.8l-1-0.2c0,0,13.6-12.6,35.8-7.5l0,0
	c1.6-3.8-2.2-3.7-5.4-3.8c-3.9-0.1-11.2-3.6-13.2-5.6c-1.7-1.7-3.1-4.7,0-3.8C36.1,109.5,45.7,110.9,49.9,110.2z"/>
<path class="st1" d="M108.1,383.2c8.4-1.4,41.5-12.5,44.7,8.6c1.2,7.7-11.4,20.3-11.4,20.3s11.9,7.3,14.8,1.6
	c2.7-5.3,4.3-11.7,11.5-10c4,0.9,4,5.6,4,5.6s1.6,0.9,5.6,0.9c0,0-1.6,4.7-6.4,5.6c-1.4,0.3-7.9,23.1-40.2,22.1
	c-11.7-0.3-22.8-4.8-31.8-12.1c-4.2-3.4-9.7-6.3-14.9-4C73.3,426.3,65.3,432,65.3,432h0c-4.7-5.5-11.1-9.4-18.3-11l-2-0.4
	c0,0,26.8-24,70.7-14.2h0c3.1-7.1-4.3-7.1-10.8-7.1c-7.8-0.1-22.1-6.8-26.1-10.7c-3.3-3.2-6.2-8.9,0-7.1
	C80.8,381.9,99.8,384.5,108.1,383.2z"/>
<path class="st1" d="M97.2,543.4c11.6-2,57.5-17.7,61.8,12.1c1.6,11-15.8,28.8-15.8,28.8s16.5,10.3,20.5,2.3
	c3.7-7.6,6-16.5,15.9-14.2c5.5,1.3,5.5,7.9,5.5,7.9s2.2,1.3,7.8,1.3c0,0-2.2,6.6-8.9,7.9c-1.9,0.4-10.9,32.7-55.7,31.3
	c-16.2-0.5-31.6-6.8-44-17.1c-5.8-4.8-13.4-8.9-20.7-5.7c-14.6,6.3-25.7,14.4-25.7,14.4l0,0c-6.4-7.8-15.4-13.3-25.3-15.5l-2.7-0.6
	c0,0,37.1-34,97.9-20.1l0,0c4.3-10.1-5.9-10-14.9-10.1c-10.8-0.2-30.6-9.7-36.2-15.2c-4.6-4.5-8.5-12.7,0-10.1
	C59.5,541.6,85.8,545.3,97.2,543.4z"/>
</svg>
