<svg xmlns="http://www.w3.org/2000/svg" xmlns:xlink="http://www.w3.org/1999/xlink" viewBox="0 0 7090.02 700"><defs><style>.cls-1{fill:url(#linear-gradient);}.cls-2{fill:#334666;}.cls-3{fill:url(#linear-gradient-2);}.cls-4{fill:#7a898c;}.cls-5{fill:#8a9b9b;}.cls-6{fill:#afb2b1;}.cls-7{fill:#818a8c;}.cls-8{fill:#9ba3a5;}.cls-9{fill:#5f6b6d;}.cls-10{fill:#8c9799;}.cls-11{fill:#819b76;}.cls-12{fill:url(#linear-gradient-3);}.cls-13{fill:#4c6487;}.cls-14{fill:#5e7fa5;}.cls-15{fill:#aac5ce;}.cls-16{fill:url(#linear-gradient-4);}.cls-17{fill:url(#linear-gradient-5);}.cls-18{opacity:0.51;}</style><linearGradient id="linear-gradient" x1="3545.01" y1="700" x2="3545.01" gradientUnits="userSpaceOnUse"><stop offset="0" stop-color="#fd8484"/><stop offset="0.2" stop-color="#fb7f82"/><stop offset="0.42" stop-color="#f4727b"/><stop offset="0.66" stop-color="#e95b6f"/><stop offset="0.9" stop-color="#da3b5f"/><stop offset="1" stop-color="#d22c57"/></linearGradient><linearGradient id="linear-gradient-2" x1="854.52" y1="450" x2="854.52" y2="84.34" gradientUnits="userSpaceOnUse"><stop offset="0" stop-color="#ccb799"/><stop offset="0.24" stop-color="#d5c9b3"/><stop offset="0.5" stop-color="#dcd9c8"/><stop offset="0.76" stop-color="#e0e2d6"/><stop offset="1" stop-color="#e2e5da"/></linearGradient><linearGradient id="linear-gradient-3" x1="2609.64" x2="2609.64" y2="84.34" xlink:href="#linear-gradient-2"/><linearGradient id="linear-gradient-4" x1="4402.76" x2="4402.76" y2="84.34" xlink:href="#linear-gradient-2"/><linearGradient id="linear-gradient-5" x1="6190.67" x2="6190.67" y2="84.34" xlink:href="#linear-gradient-2"/></defs><title>enigma-background</title><g id="Layer_4" data-name="Layer 4"><rect class="cls-1" width="7090.02" height="700"/><rect class="cls-2" y="618.45" width="7090.02" height="81.55"/><path class="cls-3" d="M1709,218c-1.21-77.76-87.35-58-87.35-58-22.79-47-41.78-9-41.78-9-60.77-111-140.52-23-140.52-23-45.57-39-76,4-76,4-69.31-36-98.74,16-98.74,16-51.27-17-56,33-56,33-78.81-91-132.92,13-132.92,13C993.14,158,977,264,977,264c-36.08-27-63.61,34-63.61,34,5.7-29-19.94-26-19.94-26C921,190,854,180.5,854,180.5c-25.64-69-68.84,5.5-68.84,5.5,12.34-85-87.35-71-87.35-71C615.25,77,594,160.36,592,160.5c-49.85,3.5-41.78,55-41.78,55s-1.94-55.91-83.08-53.5c-67.41,2-124.87,116.09-107.76,72.5C374.09,197,339.91,166,339.91,166s11.39-20-5.22-38.5c-26.36-29.35-50.32-14-50.32-14-81.65-80-146.22,30-146.22,30C33.71,79.5,0,223.15,0,223.15V450H1709Z" transform="translate(0 0)"/><rect class="cls-4" x="1385.56" y="411.14" width="40.9" height="47.85" transform="translate(2812.02 870.12) rotate(-180)"/><path class="cls-4" d="M1405.92,387.82h0a20.36,20.36,0,0,1,20.36,20.36v3a0,0,0,0,1,0,0h-40.71a0,0,0,0,1,0,0v-3A20.36,20.36,0,0,1,1405.92,387.82Z"/><rect class="cls-5" x="331.04" y="531.84" width="173.23" height="49.54"/><rect class="cls-6" x="598.04" y="367" width="115.7" height="214.38"/><rect class="cls-7" x="537.8" y="388.1" width="60.23" height="193.27"/><rect class="cls-8" x="176.66" y="425.69" width="84.42" height="155.69"/><rect class="cls-9" y="464.55" width="67.41" height="116.83"/><rect class="cls-8" x="67.23" y="507.51" width="86.38" height="83.4"/><rect class="cls-4" x="261.08" y="492.41" width="60.23" height="88.97"/><rect class="cls-4" x="130.54" y="458.97" width="46.12" height="122.41"/><rect class="cls-8" x="1505.24" y="429.16" width="84.42" height="155.69" transform="translate(3094.91 1014.01) rotate(180)"/><rect class="cls-8" x="1621.26" y="510.98" width="86.82" height="83.4" transform="translate(3329.35 1105.37) rotate(180)"/><rect class="cls-9" x="1445.01" y="495.88" width="60.23" height="88.97" transform="translate(2950.25 1080.73) rotate(180)"/><rect class="cls-4" x="1589.66" y="462.44" width="46.12" height="122.41" transform="translate(3225.45 1047.29) rotate(180)"/><rect class="cls-8" x="1173.45" y="428.04" width="84.42" height="155.69" transform="translate(2431.33 1011.77) rotate(-180)"/><rect class="cls-8" x="1280.94" y="509.86" width="86.38" height="83.4" transform="translate(2648.25 1103.12) rotate(-180)"/><rect class="cls-4" x="1257.88" y="461.32" width="46.12" height="122.41" transform="translate(2561.87 1045.05) rotate(-180)"/><rect class="cls-10" x="321.5" y="452.72" width="33.95" height="128.66"/><polygon class="cls-10" points="1077.5 581.38 1003.88 581.38 1003.88 488.96 1077.5 452.72 1077.5 581.38"/><rect class="cls-10" x="894.88" y="452.72" width="49.36" height="128.66"/><rect class="cls-8" x="486.21" y="425.69" width="51.59" height="155.69"/><polygon class="cls-7" points="697.27 581.38 637.03 581.38 637.03 442.17 697.27 479.23 697.27 581.38"/><rect class="cls-4" x="944.25" y="541.97" width="60.23" height="39.41"/><rect class="cls-4" x="1077.13" y="523.72" width="96.32" height="57.66"/><path class="cls-4" d="M1125.29,471.82h0A48.16,48.16,0,0,1,1173.45,520v9.5a0,0,0,0,1,0,0h-96.32a0,0,0,0,1,0,0V520a48.16,48.16,0,0,1,48.16-48.16Z"/><rect class="cls-4" x="1367.01" y="459.25" width="78" height="122.13" transform="translate(2812.02 1040.63) rotate(-180)"/><path class="cls-4" d="M1406,423.41h0a39,39,0,0,1,39,39v6.24a0,0,0,0,1,0,0h-78a0,0,0,0,1,0,0V462.4a39,39,0,0,1,39-39Z"/><path class="cls-9" d="M919.56,583s124.35-36.94,162.22-39.41c77.78-5.07,150.28,37.76,161,37.76s-50.63,1.16-50.63,1.16-70.43-50.81-237.79.49Z" transform="translate(0 0)"/><rect class="cls-4" x="967.08" y="414.83" width="37.41" height="128.37"/><path class="cls-9" d="M490.63,583S390.57,556.61,353.24,550.1C307,542,289.86,549,302.86,564.46c11.62,13.81,35.61,17.8,35.61,17.8l47.57.6s-74.76-27.74-45.88-24.48c37.57,4.24,80.16,23.66,84.4,23.66S490.63,583,490.63,583Z" transform="translate(0 0)"/><path class="cls-7" d="M451.76,534.19V583H375.6V534.19a41,41,0,0,1,11.48-28.72V461.16a28.51,28.51,0,0,1,10.8-22.55V427.27c0-9.19,7.07-16.64,15.79-16.64a15.35,15.35,0,0,1,11.17,4.88,17,17,0,0,1,4.62,11.76v11.33a27,27,0,0,1,3,2.73,28.71,28.71,0,0,1,7.79,19.82v44.32l.33.34A41.08,41.08,0,0,1,451.76,534.19Z" transform="translate(0 0)"/><rect class="cls-9" x="810.46" y="492.41" width="84.42" height="88.97"/><rect class="cls-9" x="834.65" y="404.27" width="46.6" height="88.97"/><rect class="cls-11" x="2" y="581.38" width="1708.08" height="38.72"/><path class="cls-7" d="M572.43,581.81S678.88,549.91,729,534c75.9-24,108.43-1.62,86.18,21.49-19.89,20.66-30.66,26.29-30.66,26.29l-63,.69s92.79-49.5,29.81-36.08S614.28,581.81,607,581.81Z" transform="translate(0 0)"/><path class="cls-12" d="M3509.72,218c-22-77.31-92-58-92-58-24-47-44-9-44-9-64-111-148-23-148-23-48-39-80,4-80,4-73-36-104,16-104,16-54-17-59,33-59,33-83-91-140,13-140,13-87-36-104,70-104,70-38-27-67,34-67,34,6-29-21-26-21-26,29-82-41.5-91.5-41.5-91.5-27-69-72.51,5.5-72.51,5.5,13-85-92-71-92-71-87-38-109.39,45.36-111.51,45.5-52.51,3.5-44,55-44,55s-2-55.91-87.51-53.5c-71,2-131.53,116.09-113.51,72.5,15.5-37.5-20.5-68.5-20.5-68.5s12-20-5.5-38.5c-27.77-29.35-53-14-53-14-86-80-154,30-154,30-133.89-33.57-145.51,79.65-145.51,79.65V450H3509.72Z" transform="translate(0 0)"/><rect class="cls-4" x="3168.85" y="411.14" width="43.1" height="47.85" transform="translate(6380.79 870.12) rotate(-180)"/><path class="cls-4" d="M3190.3,387.82h0a21.45,21.45,0,0,1,21.45,21.45v1.86a0,0,0,0,1,0,0h-42.9a0,0,0,0,1,0,0v-1.86A21.45,21.45,0,0,1,3190.3,387.82Z"/><rect class="cls-5" x="2057.58" y="531.84" width="182.56" height="49.54"/><rect class="cls-6" x="2338.94" y="367" width="121.93" height="214.38"/><rect class="cls-7" x="2275.47" y="388.1" width="63.48" height="193.27"/><path class="cls-13" d="M2915.23,672.17A606.34,606.34,0,0,1,2733.63,700H2113.55c-130.51,0-191.06-59.62-151.93-81.55h130.63l988.85,1.65Z" transform="translate(0 0)"/><path class="cls-14" d="M2438,683c-19.45.87-78.09-2.51-97.56-3.13-77.7-2.48-195.73-37.52-65.77-61.4h502.77S2631.3,674.35,2438,683Z" transform="translate(0 0)"/><ellipse class="cls-15" cx="2382.35" cy="633.07" rx="12.97" ry="1.85"/><ellipse class="cls-15" cx="2413.86" cy="640.48" rx="7.41" ry="1.85"/><ellipse class="cls-15" cx="2426.83" cy="629.36" rx="9.27" ry="1.85"/><ellipse class="cls-15" cx="2437.95" cy="636.78" rx="5.56" ry="1.85"/><ellipse class="cls-15" cx="2458.34" cy="630.29" rx="7.41" ry="0.93"/><ellipse class="cls-15" cx="2482.44" cy="628.44" rx="5.56" ry="0.93"/><path class="cls-13" d="M4886.36,672.17A606.34,606.34,0,0,1,4704.76,700H4084.69c-130.51,0-191.06-59.62-151.93-81.55h130.63l988.85,1.65Z" transform="translate(0 0)"/><path class="cls-14" d="M4409.09,683c-19.45.87-78.09-2.51-97.56-3.13-77.7-2.48-195.73-37.52-65.77-61.4h502.77S4602.44,674.35,4409.09,683Z" transform="translate(0 0)"/><ellipse class="cls-15" cx="4353.49" cy="633.07" rx="12.97" ry="1.85"/><ellipse class="cls-15" cx="4384.99" cy="640.48" rx="7.41" ry="1.85"/><ellipse class="cls-15" cx="4397.97" cy="629.36" rx="9.27" ry="1.85"/><ellipse class="cls-15" cx="4409.09" cy="636.78" rx="5.56" ry="1.85"/><ellipse class="cls-15" cx="4429.48" cy="630.29" rx="7.41" ry="0.93"/><ellipse class="cls-15" cx="4453.57" cy="628.44" rx="5.56" ry="0.93"/><path class="cls-13" d="M6633.27,672.17A606.34,606.34,0,0,1,6451.67,700H5831.59c-130.51,0-191.06-59.62-151.93-81.55h130.63l988.85,1.65Z" transform="translate(0 0)"/><path class="cls-14" d="M6156,683c-19.45.87-78.09-2.51-97.56-3.13-77.7-2.48-195.73-37.52-65.77-61.4h502.77S6349.34,674.35,6156,683Z" transform="translate(0 0)"/><ellipse class="cls-15" cx="6100.39" cy="633.07" rx="12.97" ry="1.85"/><ellipse class="cls-15" cx="6131.9" cy="640.48" rx="7.41" ry="1.85"/><ellipse class="cls-15" cx="6144.88" cy="629.36" rx="9.27" ry="1.85"/><ellipse class="cls-15" cx="6156" cy="636.78" rx="5.56" ry="1.85"/><ellipse class="cls-15" cx="6176.39" cy="630.29" rx="7.41" ry="0.93"/><ellipse class="cls-15" cx="6200.48" cy="628.44" rx="5.56" ry="0.93"/><path class="cls-13" d="M1128.67,672.17A606.34,606.34,0,0,1,947.07,700H327c-130.51,0-191.06-59.62-151.93-81.55H305.69l988.85,1.65Z" transform="translate(0 0)"/><path class="cls-14" d="M651.4,683c-19.45.87-78.09-2.51-97.56-3.13-77.7-2.48-195.73-37.52-65.77-61.4H990.84S844.74,674.35,651.4,683Z" transform="translate(0 0)"/><ellipse class="cls-15" cx="595.79" cy="633.07" rx="12.97" ry="1.85"/><ellipse class="cls-15" cx="627.3" cy="640.48" rx="7.41" ry="1.85"/><ellipse class="cls-15" cx="640.28" cy="629.36" rx="9.27" ry="1.85"/><ellipse class="cls-15" cx="651.4" cy="636.78" rx="5.56" ry="1.85"/><ellipse class="cls-15" cx="671.79" cy="630.29" rx="7.41" ry="0.93"/><ellipse class="cls-15" cx="695.88" cy="628.44" rx="5.56" ry="0.93"/><rect class="cls-8" x="1894.89" y="425.69" width="88.97" height="155.69"/><rect class="cls-9" x="1709.55" y="464.55" width="70.21" height="116.83"/><rect class="cls-8" x="1779.57" y="507.51" width="91.02" height="83.4"/><rect class="cls-4" x="1983.86" y="492.41" width="63.48" height="88.97"/><rect class="cls-4" x="1846.29" y="458.97" width="48.6" height="122.41"/><rect class="cls-8" x="3294.97" y="429.16" width="88.97" height="155.69" transform="translate(6678.9 1014.01) rotate(180)"/><rect class="cls-8" x="3417.23" y="510.98" width="91.02" height="83.4" transform="translate(6925.49 1105.37) rotate(180)"/><rect class="cls-9" x="3231.49" y="495.88" width="63.48" height="88.97" transform="translate(6526.46 1080.73) rotate(180)"/><rect class="cls-4" x="3383.93" y="462.44" width="48.6" height="122.41" transform="translate(6816.47 1047.29) rotate(180)"/><rect class="cls-8" x="2945.32" y="428.04" width="88.97" height="155.69" transform="translate(5979.62 1011.77) rotate(-180)"/><rect class="cls-8" x="3058.59" y="509.86" width="91.02" height="83.4" transform="translate(6208.21 1103.12) rotate(-180)"/><rect class="cls-4" x="3034.29" y="461.32" width="48.6" height="122.41" transform="translate(6117.18 1045.05) rotate(-180)"/><rect class="cls-10" x="2047.52" y="452.72" width="35.78" height="128.66"/><polygon class="cls-10" points="2844.2 581.38 2766.62 581.38 2766.62 488.96 2844.2 452.72 2844.2 581.38"/><rect class="cls-10" x="2651.76" y="452.72" width="52.02" height="128.66"/><rect class="cls-8" x="2221.1" y="425.69" width="54.37" height="155.69"/><polygon class="cls-7" points="2443.51 581.38 2380.04 581.38 2380.04 442.17 2443.51 479.23 2443.51 581.38"/><rect class="cls-4" x="2703.78" y="541.97" width="63.48" height="39.41"/><rect class="cls-4" x="2843.82" y="523.72" width="101.5" height="57.66"/><path class="cls-4" d="M2894.57,471.82h0a50.75,50.75,0,0,1,50.75,50.75v6.91a0,0,0,0,1,0,0h-101.5a0,0,0,0,1,0,0v-6.91a50.75,50.75,0,0,1,50.75-50.75Z"/><rect class="cls-4" x="3149.3" y="459.25" width="82.19" height="122.13" transform="translate(6380.79 1040.63) rotate(-180)"/><path class="cls-4" d="M3190.39,423.41h0a41.1,41.1,0,0,1,41.1,41.1v4.14a0,0,0,0,1,0,0H3149.3a0,0,0,0,1,0,0V464.5A41.1,41.1,0,0,1,3190.39,423.41Z"/><path class="cls-9" d="M2677.77,583s131-36.94,170.95-39.41c82-5.07,158.37,37.76,169.63,37.76s-53.35,1.16-53.35,1.16-74.22-50.81-250.59.49Z" transform="translate(0 0)"/><rect class="cls-4" x="2727.84" y="414.83" width="39.42" height="128.37"/><path class="cls-9" d="M2225.75,583S2120.31,556.61,2081,550.1c-48.77-8.07-66.79-1.08-53.09,14.37,12.25,13.81,37.53,17.8,37.53,17.8l50.13.6s-78.78-27.74-48.35-24.48c39.59,4.24,84.48,23.66,88.94,23.66S2225.75,583,2225.75,583Z" transform="translate(0 0)"/><path class="cls-7" d="M2184.8,534.19V583h-80.26V534.19a40,40,0,0,1,12.1-28.72V461.16A28,28,0,0,1,2128,438.61V427.27a16.64,16.64,0,1,1,33.28,0v11.33a28,28,0,0,1,11.39,22.55v44.32l.35.34A40,40,0,0,1,2184.8,534.19Z" transform="translate(0 0)"/><rect class="cls-9" x="2562.8" y="492.41" width="88.97" height="88.97"/><rect class="cls-9" x="2588.29" y="404.27" width="49.11" height="88.97"/><rect class="cls-11" x="1708.72" y="581.38" width="1800" height="38.72"/><path class="cls-7" d="M2312,581.81s112.17-31.9,165-47.78c80-24,114.26-1.62,90.82,21.49-21,20.66-32.31,26.29-32.31,26.29l-66.35.69s97.78-49.5,31.42-36.08-144.52,35.39-152.16,35.39Z" transform="translate(0 0)"/><path class="cls-16" d="M5302.76,218c-1.28-77.76-92-58-92-58-24-47-44-9-44-9-64-111-148-23-148-23-48-39-80,4-80,4-73-36-104,16-104,16-54-17-59,33-59,33-83-91-140,13-140,13-87-36-104,70-104,70-38-27-67,34-67,34,6-29-21-26-21-26,29-82-41.5-91.5-41.5-91.5-27-69-72.5,5.5-72.5,5.5,13-85-92-71-92-71-87-38-109.38,45.36-111.5,45.5-52.5,3.5-44,55-44,55s-2-55.91-87.5-53.5c-71,2-131.52,116.09-113.5,72.5,15.5-37.5-20.5-68.5-20.5-68.5s12-20-5.5-38.5c-27.77-29.35-53-14-53-14-86-80-154,30-154,30-110-64-145.5,79.65-145.5,79.65V450h1800Z" transform="translate(0 0)"/><rect class="cls-4" x="4961.88" y="411.14" width="43.1" height="47.85" transform="translate(9966.86 870.12) rotate(-180)"/><path class="cls-4" d="M4983.34,387.82h0a21.45,21.45,0,0,1,21.45,21.45v1.86a0,0,0,0,1,0,0h-42.9a0,0,0,0,1,0,0v-1.86A21.45,21.45,0,0,1,4983.34,387.82Z"/><rect class="cls-5" x="3850.62" y="531.84" width="182.56" height="49.54"/><rect class="cls-6" x="4131.98" y="367" width="121.93" height="214.38"/><rect class="cls-7" x="4068.51" y="388.1" width="63.48" height="193.27"/><rect class="cls-8" x="3687.93" y="425.69" width="88.97" height="155.69"/><rect class="cls-9" x="3502.59" y="464.55" width="70.21" height="116.83"/><rect class="cls-8" x="3572.61" y="507.51" width="91.02" height="83.4"/><rect class="cls-4" x="3776.9" y="492.41" width="63.48" height="88.97"/><rect class="cls-4" x="3639.33" y="458.97" width="48.6" height="122.41"/><rect class="cls-8" x="5088.01" y="429.16" width="88.97" height="155.69" transform="translate(10264.98 1014.01) rotate(180)"/><rect class="cls-8" x="5210.27" y="510.98" width="91.49" height="83.4" transform="translate(10512.03 1105.37) rotate(180)"/><rect class="cls-9" x="5024.53" y="495.88" width="63.48" height="88.97" transform="translate(10112.53 1080.73) rotate(180)"/><rect class="cls-4" x="5176.97" y="462.44" width="48.6" height="122.41" transform="translate(10402.54 1047.29) rotate(180)"/><rect class="cls-8" x="4738.36" y="428.04" width="88.97" height="155.69" transform="translate(9565.69 1011.77) rotate(-180)"/><rect class="cls-8" x="4851.63" y="509.86" width="91.02" height="83.4" transform="translate(9794.28 1103.12) rotate(-180)"/><rect class="cls-4" x="4827.33" y="461.32" width="48.6" height="122.41" transform="translate(9703.26 1045.05) rotate(-180)"/><rect class="cls-10" x="3840.56" y="452.72" width="35.78" height="128.66"/><polygon class="cls-10" points="4637.24 581.38 4559.66 581.38 4559.66 488.96 4637.24 452.72 4637.24 581.38"/><rect class="cls-10" x="4444.8" y="452.72" width="52.02" height="128.66"/><rect class="cls-8" x="4014.14" y="425.69" width="54.37" height="155.69"/><polygon class="cls-7" points="4236.55 581.38 4173.08 581.38 4173.08 442.17 4236.55 479.23 4236.55 581.38"/><rect class="cls-4" x="4496.82" y="541.97" width="63.48" height="39.41"/><rect class="cls-4" x="4636.86" y="523.72" width="101.5" height="57.66"/><path class="cls-4" d="M4687.61,471.82h0a50.75,50.75,0,0,1,50.75,50.75v6.91a0,0,0,0,1,0,0h-101.5a0,0,0,0,1,0,0v-6.91A50.75,50.75,0,0,1,4687.61,471.82Z"/><rect class="cls-4" x="4942.34" y="459.25" width="82.19" height="122.13" transform="translate(9966.86 1040.63) rotate(-180)"/><path class="cls-4" d="M4983.43,423.41h0a41.1,41.1,0,0,1,41.1,41.1v4.14a0,0,0,0,1,0,0h-82.19a0,0,0,0,1,0,0V464.5A41.1,41.1,0,0,1,4983.43,423.41Z"/><path class="cls-9" d="M4470.81,583s131-36.94,170.95-39.41c82-5.07,158.37,37.76,169.63,37.76s-53.35,1.16-53.35,1.16-74.22-50.81-250.59.49Z" transform="translate(0 0)"/><rect class="cls-4" x="4520.88" y="414.83" width="39.42" height="128.37"/><path class="cls-9" d="M4018.79,583S3913.35,556.61,3874,550.1c-48.77-8.07-66.79-1.08-53.09,14.37,12.25,13.81,37.53,17.8,37.53,17.8l50.13.6s-78.78-27.74-48.35-24.48c39.59,4.24,84.48,23.66,88.94,23.66S4018.79,583,4018.79,583Z" transform="translate(0 0)"/><path class="cls-7" d="M3977.84,534.19V583h-80.26V534.19a40,40,0,0,1,12.1-28.72V461.16a28,28,0,0,1,11.38-22.55V427.27a16.64,16.64,0,1,1,33.28,0v11.33a28,28,0,0,1,11.39,22.55v44.32l.35.34A40,40,0,0,1,3977.84,534.19Z" transform="translate(0 0)"/><rect class="cls-9" x="4355.84" y="492.41" width="88.97" height="88.97"/><rect class="cls-9" x="4381.32" y="404.27" width="49.11" height="88.97"/><rect class="cls-11" x="3501.76" y="581.38" width="1800" height="38.72"/><path class="cls-7" d="M4105,581.81s112.17-31.9,165-47.78c80-24,114.26-1.62,90.82,21.49-21,20.66-32.31,26.29-32.31,26.29l-66.35.69s97.78-49.5,31.42-36.08-144.52,35.39-152.16,35.39Z" transform="translate(0 0)"/><path class="cls-17" d="M7090,218c-22-77.31-91.93-58-91.93-58-24-47-44-9-44-9-64-111-147.89-23-147.89-23-48-39-79.94,4-79.94,4-72.95-36-103.93,16-103.93,16-54-17-59,33-59,33-82.94-91-139.9,13-139.9,13-86.94-36-103.93,70-103.93,70-38-27-67,34-67,34,6-29-21-26-21-26,29-82-41.47-91.5-41.47-91.5-27-69-72.45,5.5-72.45,5.5,13-85-91.93-71-91.93-71-86.94-38-109.3,45.36-111.42,45.5-52.46,3.5-44,55-44,55s-2-55.91-87.44-53.5c-70.95,2-131.42,116.09-113.42,72.5C5685,197,5649.06,166,5649.06,166s12-20-5.5-38.5c-27.75-29.35-53-14-53-14-85.94-80-153.89,30-153.89,30-133.78-33.57-145.4,79.65-145.4,79.65V450H7090Z" transform="translate(0 0)"/><rect class="cls-4" x="6750.61" y="411.14" width="43.1" height="47.85" transform="translate(13544.31 870.12) rotate(-180)"/><path class="cls-4" d="M6772.06,387.82h0a21.45,21.45,0,0,1,21.45,21.45v1.86a0,0,0,0,1,0,0h-42.9a0,0,0,0,1,0,0v-1.86A21.45,21.45,0,0,1,6772.06,387.82Z"/><rect class="cls-5" x="5639.34" y="531.84" width="182.56" height="49.54"/><rect class="cls-6" x="5920.71" y="367" width="121.93" height="214.38"/><rect class="cls-7" x="5857.23" y="388.1" width="63.48" height="193.27"/><rect class="cls-8" x="5476.66" y="425.69" width="88.97" height="155.69"/><rect class="cls-9" x="5291.31" y="464.55" width="70.21" height="116.83"/><rect class="cls-8" x="5361.33" y="507.51" width="91.02" height="83.4"/><rect class="cls-4" x="5565.62" y="492.41" width="63.48" height="88.97"/><rect class="cls-4" x="5428.05" y="458.97" width="48.6" height="122.41"/><rect class="cls-8" x="6876.73" y="429.16" width="88.97" height="155.69" transform="translate(13842.43 1014.01) rotate(180)"/><rect class="cls-8" x="6999" y="510.98" width="91.02" height="83.4" transform="translate(14089.02 1105.37) rotate(180)"/><rect class="cls-9" x="6813.25" y="495.88" width="63.48" height="88.97" transform="translate(13689.98 1080.73) rotate(180)"/><rect class="cls-4" x="6965.7" y="462.44" width="48.6" height="122.41" transform="translate(13979.99 1047.29) rotate(180)"/><rect class="cls-8" x="6527.09" y="428.04" width="88.97" height="155.69" transform="translate(13143.14 1011.77) rotate(-180)"/><rect class="cls-8" x="6640.35" y="509.86" width="91.02" height="83.4" transform="translate(13371.73 1103.12) rotate(-180)"/><rect class="cls-4" x="6616.05" y="461.32" width="48.6" height="122.41" transform="translate(13280.71 1045.05) rotate(-180)"/><rect class="cls-10" x="5629.28" y="452.72" width="35.78" height="128.66"/><polygon class="cls-10" points="6425.97 581.38 6348.38 581.38 6348.38 488.96 6425.97 452.72 6425.97 581.38"/><rect class="cls-10" x="6233.53" y="452.72" width="52.02" height="128.66"/><rect class="cls-8" x="5802.86" y="425.69" width="54.37" height="155.69"/><polygon class="cls-7" points="6025.28 581.38 5961.8 581.38 5961.8 442.17 6025.28 479.23 6025.28 581.38"/><rect class="cls-4" x="6285.55" y="541.97" width="63.48" height="39.41"/><rect class="cls-4" x="6425.58" y="523.72" width="101.5" height="57.66"/><path class="cls-4" d="M6476.34,471.82h0a50.75,50.75,0,0,1,50.75,50.75v6.91a0,0,0,0,1,0,0h-101.5a0,0,0,0,1,0,0v-6.91A50.75,50.75,0,0,1,6476.34,471.82Z"/><rect class="cls-4" x="6731.06" y="459.25" width="82.19" height="122.13" transform="translate(13544.31 1040.63) rotate(-180)"/><path class="cls-4" d="M6772.16,423.41h0a41.1,41.1,0,0,1,41.1,41.1v4.14a0,0,0,0,1,0,0h-82.19a0,0,0,0,1,0,0V464.5a41.1,41.1,0,0,1,41.1-41.1Z"/><path class="cls-9" d="M6259.54,583s131-36.94,170.95-39.41c82-5.07,158.37,37.76,169.63,37.76s-53.35,1.16-53.35,1.16-74.22-50.81-250.59.49Z" transform="translate(0 0)"/><rect class="cls-4" x="6309.6" y="414.83" width="39.42" height="128.37"/><path class="cls-9" d="M5807.52,583s-105.45-26.42-144.79-32.93c-48.77-8.07-66.79-1.08-53.09,14.37,12.25,13.81,37.53,17.8,37.53,17.8l50.13.6s-78.78-27.74-48.35-24.48c39.59,4.24,84.48,23.66,88.94,23.66S5807.52,583,5807.52,583Z" transform="translate(0 0)"/><path class="cls-7" d="M5766.56,534.19V583H5686.3V534.19a40,40,0,0,1,12.1-28.72V461.16a28,28,0,0,1,11.38-22.55V427.27a16.64,16.64,0,1,1,33.28,0v11.33a28,28,0,0,1,11.39,22.55v44.32l.35.34A40,40,0,0,1,5766.56,534.19Z" transform="translate(0 0)"/><rect class="cls-9" x="6144.56" y="492.41" width="88.97" height="88.97"/><rect class="cls-9" x="6170.05" y="404.27" width="49.11" height="88.97"/><rect class="cls-11" x="5290.49" y="581.38" width="1799.53" height="38.72"/><path class="cls-7" d="M5893.73,581.81s112.17-31.9,165-47.78c80-24,114.26-1.62,90.82,21.49-21,20.66-32.31,26.29-32.31,26.29l-66.35.69s97.78-49.5,31.42-36.08-144.52,35.39-152.16,35.39Z" transform="translate(0 0)"/><g class="cls-18"><ellipse class="cls-15" cx="1465.79" cy="659.83" rx="12.31" ry="1.85"/><ellipse class="cls-15" cx="1495.69" cy="667.24" rx="7.04" ry="1.85"/><ellipse class="cls-15" cx="1518.55" cy="663.53" rx="5.28" ry="1.85"/><ellipse class="cls-15" cx="1537.9" cy="657.05" rx="7.04" ry="0.93"/><ellipse class="cls-15" cx="1592.72" cy="646.12" rx="5.28" ry="0.93"/><ellipse class="cls-15" cx="1643.73" cy="673.53" rx="12.31" ry="1.85"/><ellipse class="cls-15" cx="1613.83" cy="666.12" rx="7.04" ry="1.85"/><ellipse class="cls-15" cx="1601.52" cy="677.24" rx="8.79" ry="1.85"/><ellipse class="cls-15" cx="1588.79" cy="661.83" rx="7.45" ry="1.85"/><ellipse class="cls-15" cx="1571.62" cy="676.31" rx="7.04" ry="0.93"/><ellipse class="cls-15" cx="1548.75" cy="678.17" rx="5.28" ry="0.93"/><ellipse class="cls-15" cx="1637.9" cy="637.05" rx="7.04" ry="0.93"/><ellipse class="cls-15" cx="1660.76" cy="635.19" rx="5.28" ry="0.93"/><ellipse class="cls-15" cx="1743.73" cy="653.53" rx="12.31" ry="1.85"/><ellipse class="cls-15" cx="1713.83" cy="646.12" rx="7.04" ry="1.85"/><ellipse class="cls-15" cx="1701.52" cy="657.24" rx="8.79" ry="1.85"/><ellipse class="cls-15" cx="1690.97" cy="649.83" rx="5.28" ry="1.85"/><ellipse class="cls-15" cx="1671.62" cy="656.31" rx="7.04" ry="0.93"/><ellipse class="cls-15" cx="1648.75" cy="658.17" rx="5.28" ry="0.93"/></g><g class="cls-18"><ellipse class="cls-15" cx="3244.96" cy="662.37" rx="12.31" ry="1.85"/><ellipse class="cls-15" cx="3274.86" cy="669.78" rx="7.04" ry="1.85"/><ellipse class="cls-15" cx="3297.73" cy="666.08" rx="5.28" ry="1.85"/><ellipse class="cls-15" cx="3317.07" cy="659.59" rx="7.04" ry="0.93"/><ellipse class="cls-15" cx="3371.9" cy="648.66" rx="5.28" ry="0.93"/><ellipse class="cls-15" cx="3422.9" cy="676.08" rx="12.31" ry="1.85"/><ellipse class="cls-15" cx="3393" cy="668.66" rx="7.04" ry="1.85"/><ellipse class="cls-15" cx="3380.69" cy="679.78" rx="8.79" ry="1.85"/><ellipse class="cls-15" cx="3367.96" cy="664.37" rx="7.45" ry="1.85"/><ellipse class="cls-15" cx="3350.79" cy="678.86" rx="7.04" ry="0.93"/><ellipse class="cls-15" cx="3327.93" cy="680.71" rx="5.28" ry="0.93"/><ellipse class="cls-15" cx="3417.07" cy="639.59" rx="7.04" ry="0.93"/><ellipse class="cls-15" cx="3439.94" cy="637.74" rx="5.28" ry="0.93"/><ellipse class="cls-15" cx="3522.9" cy="656.08" rx="12.31" ry="1.85"/><ellipse class="cls-15" cx="3493" cy="648.66" rx="7.04" ry="1.85"/><ellipse class="cls-15" cx="3480.69" cy="659.78" rx="8.79" ry="1.85"/><ellipse class="cls-15" cx="3470.14" cy="652.37" rx="5.28" ry="1.85"/><ellipse class="cls-15" cx="3450.79" cy="658.86" rx="7.04" ry="0.93"/><ellipse class="cls-15" cx="3427.93" cy="660.71" rx="5.28" ry="0.93"/></g><g class="cls-18"><ellipse class="cls-15" cx="3805.99" cy="652.02" rx="12.31" ry="1.85" transform="translate(-17.42 111.47) rotate(-1.67)"/><ellipse class="cls-15" cx="3775.88" cy="645.48" rx="7.04" ry="1.85" transform="translate(-17.25 110.59) rotate(-1.67)"/><ellipse class="cls-15" cx="3753.14" cy="649.86" rx="5.28" ry="1.85" transform="translate(-17.38 109.93) rotate(-1.67)"/><ellipse class="cls-15" cx="3733.99" cy="656.9" rx="7.04" ry="0.93" transform="translate(-17.6 109.37) rotate(-1.67)"/><ellipse class="cls-15" cx="3679.51" cy="669.43" rx="5.28" ry="0.93" transform="translate(-17.99 107.78) rotate(-1.67)"/><ellipse class="cls-15" cx="3627.72" cy="643.52" rx="12.31" ry="1.85" transform="translate(-17.25 106.26) rotate(-1.67)"/><ellipse class="cls-15" cx="3657.82" cy="650.05" rx="7.04" ry="1.85" transform="translate(-17.43 107.14) rotate(-1.67)"/><ellipse class="cls-15" cx="3669.81" cy="638.58" rx="8.79" ry="1.85" transform="translate(-17.09 107.49) rotate(-1.67)"/><ellipse class="cls-15" cx="3682.98" cy="653.61" rx="7.45" ry="1.85" transform="translate(-17.52 107.88) rotate(-1.67)"/><ellipse class="cls-15" cx="3699.72" cy="638.63" rx="7.04" ry="0.93" transform="translate(-17.08 108.36) rotate(-1.67)"/><ellipse class="cls-15" cx="3722.52" cy="636.11" rx="5.28" ry="0.93" transform="translate(-17 109.03) rotate(-1.67)"/><ellipse class="cls-15" cx="3634.61" cy="679.82" rx="7.04" ry="0.93" transform="translate(-18.31 106.48) rotate(-1.67)"/><ellipse class="cls-15" cx="3611.81" cy="682.34" rx="5.28" ry="0.93" transform="translate(-18.39 105.81) rotate(-1.67)"/><ellipse class="cls-15" cx="3558.45" cy="672.97" rx="7.04" ry="1.85" transform="matrix(1, -0.03, 0.03, 1, -18.14, 104.25)"/><ellipse class="cls-15" cx="3570.43" cy="661.49" rx="8.79" ry="1.85" transform="translate(-17.8 104.59) rotate(-1.67)"/><ellipse class="cls-15" cx="3581.2" cy="668.59" rx="5.28" ry="1.85" transform="translate(-18 104.91) rotate(-1.67)"/><ellipse class="cls-15" cx="3600.35" cy="661.54" rx="7.04" ry="0.93" transform="translate(-17.79 105.47) rotate(-1.67)"/><ellipse class="cls-15" cx="3623.15" cy="659.02" rx="5.28" ry="0.93" transform="translate(-17.71 106.13) rotate(-1.67)"/></g><g class="cls-18"><ellipse class="cls-15" cx="5230.89" cy="662.37" rx="12.31" ry="1.85"/><ellipse class="cls-15" cx="5260.79" cy="669.78" rx="7.04" ry="1.85"/><ellipse class="cls-15" cx="5283.65" cy="666.08" rx="5.28" ry="1.85"/><ellipse class="cls-15" cx="5303" cy="659.59" rx="7.04" ry="0.93"/><ellipse class="cls-15" cx="5357.82" cy="648.66" rx="5.28" ry="0.93"/><ellipse class="cls-15" cx="5408.83" cy="676.08" rx="12.31" ry="1.85"/><ellipse class="cls-15" cx="5378.93" cy="668.66" rx="7.04" ry="1.85"/><ellipse class="cls-15" cx="5366.62" cy="679.78" rx="8.79" ry="1.85"/><ellipse class="cls-15" cx="5353.89" cy="664.37" rx="7.45" ry="1.85"/><ellipse class="cls-15" cx="5336.72" cy="678.86" rx="7.04" ry="0.93"/><ellipse class="cls-15" cx="5313.85" cy="680.71" rx="5.28" ry="0.93"/><ellipse class="cls-15" cx="5403" cy="639.59" rx="7.04" ry="0.93"/><ellipse class="cls-15" cx="5425.86" cy="637.74" rx="5.28" ry="0.93"/><ellipse class="cls-15" cx="5508.83" cy="656.08" rx="12.31" ry="1.85"/><ellipse class="cls-15" cx="5478.93" cy="648.66" rx="7.04" ry="1.85"/><ellipse class="cls-15" cx="5466.62" cy="659.78" rx="8.79" ry="1.85"/><ellipse class="cls-15" cx="5456.06" cy="652.37" rx="5.28" ry="1.85"/><ellipse class="cls-15" cx="5436.72" cy="658.86" rx="7.04" ry="0.93"/><ellipse class="cls-15" cx="5413.85" cy="660.71" rx="5.28" ry="0.93"/></g></g></svg>