<svg id="Layer_1" data-name="Layer 1" xmlns="http://www.w3.org/2000/svg" viewBox="0 0 900 699.79"><defs><style>.cls-1,.cls-20{fill:#fff;}.cls-2{fill:#db3757;opacity:0.54;}.cls-3{fill:#647233;}.cls-4{fill:#d3ce71;}.cls-23,.cls-5{fill:#1e2f33;}.cls-6{fill:#131216;}.cls-13,.cls-24,.cls-7{fill:#3d6f77;}.cls-8{fill:#eabdac;}.cls-9{fill:#896449;}.cls-10{fill:#bc9695;}.cls-11{fill:#f2f0f0;}.cls-12{fill:#4d98a0;opacity:0.72;}.cls-13{stroke:#21353a;stroke-miterlimit:10;stroke-width:4px;}.cls-14{fill:#2c484f;}.cls-15{fill:#21353a;}.cls-16{fill:#509299;}.cls-17{fill:#212121;}.cls-18{fill:#dddd9e;}.cls-19,.cls-25{fill:#424242;}.cls-20{font-size:38.19px;}.cls-20,.cls-25{font-family:MyriadPro-Regular, Myriad Pro;}.cls-21{letter-spacing:-0.08em;}.cls-22{letter-spacing:-0.02em;}.cls-23{font-size:36px;}.cls-23,.cls-24{font-family:PTMono-Regular, PT Mono;}.cls-24{font-size:25px;}.cls-25{font-size:19.5px;}.cls-26{letter-spacing:-0.07em;}.cls-27{letter-spacing:-0.08em;}.cls-28{letter-spacing:-0.01em;}.cls-29{letter-spacing:-0.04em;}.cls-30{letter-spacing:-0.03em;}.cls-31{letter-spacing:0em;}.cls-32{letter-spacing:-0.01em;}.cls-33{letter-spacing:-0.05em;}.cls-34{letter-spacing:-0.08em;}.cls-35{letter-spacing:-0.04em;}.cls-36{letter-spacing:-0.06em;}.cls-37{letter-spacing:-0.08em;}.cls-38{letter-spacing:-0.08em;}.cls-39{letter-spacing:0em;}</style></defs><title>instructions</title><rect class="cls-1" width="900" height="699.79"/><path class="cls-2" d="M727.82,314.42,635,368.13l-92.84,53.7-.24-93.91c-83,0-143.88,48.58-147.54,102.68-2.44,36,.45,54.68,8,87.92l-50.64-15.58L315,542.32c-33-52.85-32.06-162.78,42.47-233,72.15-68,173.5-47.1,184.31-45.2v-1.53q-.08-27.29-.14-54.58L634.7,261.2Z" transform="translate(0 -0.21)"/><path class="cls-3" d="M715.43,165.31a33.83,33.83,0,0,1-2.92,16.08,41,41,0,0,1-2.19,4.22c-.8,1.34-1.44,2.24-1.66,2.66a24.47,24.47,0,0,1-4.43,6,41.27,41.27,0,0,1-3.85,3.37c-4.34,3.42-8.71,6.23-10.93,12.37a38.19,38.19,0,0,0-1.56,5.46,48.73,48.73,0,0,0-1,8c-.07,1.86-.08,3.72-.08,5.61,0,20.71,12.58,32.46,10.18,34-1.81,1.15-11.37-3.87-18.29-12.4-.68-.82-1.32-1.66-1.93-2.54a34.4,34.4,0,0,1-3-5.29,27.43,27.43,0,0,1-1.15-2.88,43.65,43.65,0,0,1-1.36-5,52.19,52.19,0,0,1-1.06-8.32c-.1-2-.09-3.89,0-5.77a84.29,84.29,0,0,1,3.89-21c.42-1.35.81-2.5,1.11-3.41s.66-1.94,1-2.82c2.95-8.31,4.86-11.46,5.49-17.86a30.62,30.62,0,0,0-.26-8.2c-.14-.82-.32-1.62-.52-2.4a40,40,0,0,0-3.61-8.81c-1-2-2.23-3.93-3.45-6-.81-1.36-1.65-2.77-2.49-4.23-2.29-4-3.74-6.7-4.79-8.87-.67-1.37-1.18-2.52-1.65-3.63h0c-1.3-3-2.27-5.78-5.33-12-.72-1.46-1.48-3-2.21-4.56-.32-.69-.64-1.39-1-2.1a49,49,0,0,1-4.59-20.54c.08-6.92,2.64-14.58,7.75-29.9,4.5-13.49,5.88-14.83,5.16-19-1.65-9.69-5.35-10.44-10.47-21.75-2.57-5.67-3.88-16-2.77-23.55H714c6.06,13.36,2.92,32.85-2.63,47.5-.37,1-.76,2-1.15,2.89A67,67,0,0,1,705,60.81a32.47,32.47,0,0,1-2.76,3.74c-.25.29-.64.71-1.1,1.28a29.71,29.71,0,0,0-5.36,9.59c-2.5,7.57-1.26,14.5,0,20.39,1.21,5.67,2.55,10.85,3.93,15.62q.75,2.66,1.53,5.13c1.1,3.56,2.21,6.88,3.27,10,.55,1.61,1.09,3.15,1.61,4.64.39,1.11.75,2.17,1.11,3.18,1.57,4.57,2.8,8.23,3.76,11.22.53,1.62,1,3,1.36,4.31a69.16,69.16,0,0,1,2.8,12.57c0,.12,0,.25,0,.37C715.29,163.66,715.38,164.5,715.43,165.31Z" transform="translate(0 -0.21)"/><polygon class="cls-3" points="716.02 71.99 682.23 57.55 685.01 50.23 687.79 42.9 716.02 71.99"/><polygon class="cls-3" points="705.02 234.09 675.91 216.6 680.05 213.9 684.19 211.21 705.02 234.09"/><polygon class="cls-3" points="717.5 107.37 687.76 123.77 687.51 118.84 687.26 113.91 717.5 107.37"/><polygon class="cls-3" points="733.3 126.1 700.84 136.09 701.6 131.21 702.37 126.33 733.3 126.1"/><polygon class="cls-3" points="650.21 119.82 676.6 98.45 677.72 103.27 678.83 108.08 650.21 119.82"/><polygon class="cls-3" points="720.58 52.97 687.63 44.76 690.8 40.97 693.98 37.18 720.58 52.97"/><polygon class="cls-3" points="657.07 144.41 676.81 116.78 679.16 121.12 681.52 125.46 657.07 144.41"/><polygon class="cls-3" points="663.48 257.9 684.96 241.78 684.39 244.86 683.82 247.95 663.48 257.9"/><polygon class="cls-3" points="654.95 164.43 682.05 143.96 683 148.81 683.95 153.66 654.95 164.43"/><polygon class="cls-3" points="653.88 189.53 687.35 195.31 684.47 199.32 681.58 203.33 653.88 189.53"/><polygon class="cls-3" points="673.1 168.29 704.31 154.89 704.08 159.82 703.84 164.76 673.1 168.29"/><polygon class="cls-3" points="651.32 227.3 683.35 216.01 682.78 220.92 682.22 225.83 651.32 227.3"/><polygon class="cls-3" points="653.64 245.69 683.49 227.15 683.34 230.28 673.15 243.45 653.64 245.69"/><polygon class="cls-3" points="725.59 149.34 691.63 150.17 693.69 145.68 695.74 141.19 725.59 149.34"/><polygon class="cls-3" points="723.58 164.9 689.63 165.73 691.68 161.24 693.74 156.74 723.58 164.9"/><polygon class="cls-3" points="722.59 194.13 694.92 174.44 699.25 172.08 703.59 169.71 722.59 194.13"/><polygon class="cls-3" points="707.82 207.78 691.74 185.43 696.23 183.06 700.72 180.7 707.82 207.78"/><path class="cls-4" d="M683.1,51c.75-3.4,3.38-5.95,5.89-5.69s3.93,3.22,3.19,6.62-3.38,5.95-5.89,5.69S682.36,54.38,683.1,51Z" transform="translate(0 -0.21)"/><path class="cls-4" d="M678.79,34.13c.35-3.05,2.1-5.45,3.9-5.36s3,2.64,2.62,5.69-2.1,5.45-3.9,5.36S678.44,37.18,678.79,34.13Z" transform="translate(0 -0.21)"/><path class="cls-4" d="M692.17,34c.27-2.37,2-4.21,3.75-4.12s3,2.08,2.77,4.45-2,4.21-3.75,4.12S691.9,36.39,692.17,34Z" transform="translate(0 -0.21)"/><path class="cls-4" d="M671.76,19.73c.3-2.64,1.65-4.73,3-4.66s2.21,2.27,1.9,4.91-1.65,4.73-3,4.66S671.45,22.37,671.76,19.73Z" transform="translate(0 -0.21)"/><path class="cls-4" d="M688.89,17c.3-2.64,1.65-4.73,3-4.66s2.21,2.27,1.9,4.91-1.65,4.73-3,4.66S688.59,19.62,688.89,17Z" transform="translate(0 -0.21)"/><path class="cls-4" d="M664.6,97.33c.11,2.95-1,5.4-2.55,5.47s-2.85-2.26-3-5.21,1-5.4,2.55-5.47S664.49,94.38,664.6,97.33Z" transform="translate(0 -0.21)"/><path class="cls-4" d="M676.15,107.16c.4,2.42-.08,4.52-1.07,4.69s-2.12-1.65-2.52-4.06.08-4.52,1.07-4.69S675.75,104.75,676.15,107.16Z" transform="translate(0 -0.21)"/><path class="cls-4" d="M682,94c0,2.19-.86,4-1.84,4s-1.76-1.78-1.73-4,.86-4,1.84-4S682,91.78,682,94Z" transform="translate(0 -0.21)"/><path class="cls-4" d="M669.57,119.19c.66,1.92.37,3.78-.66,4.14s-2.39-.9-3.05-2.83-.37-3.78.66-4.14S668.9,117.27,669.57,119.19Z" transform="translate(0 -0.21)"/><path class="cls-4" d="M681.79,122.57c.74,2.15.59,4.16-.33,4.48s-2.27-1.15-3-3.3-.59-4.16.33-4.48S681.05,120.42,681.79,122.57Z" transform="translate(0 -0.21)"/><path class="cls-4" d="M677.23,131.79c.74,2.15.71,4.11-.06,4.39s-2-1.25-2.74-3.4-.71-4.11.06-4.39S676.49,129.65,677.23,131.79Z" transform="translate(0 -0.21)"/><path class="cls-4" d="M693.89,120.43c.46,1.34.29,2.61-.37,2.84s-1.57-.66-2-2-.29-2.61.37-2.84S693.43,119.09,693.89,120.43Z" transform="translate(0 -0.21)"/><path class="cls-4" d="M686.53,138.51c.82,1.61,1,3.18.36,3.51s-1.8-.72-2.62-2.33-1-3.18-.36-3.51S685.71,136.89,686.53,138.51Z" transform="translate(0 -0.21)"/><path class="cls-5" d="M387.82,282.17c1.7,1.14-10,8.93-7.81,17,2.61,9.42,16.36,10.53,17.34,15.53,1.86,9.53-11.19,16.25-9.52,19,13.24,21.89,170.06-17.25,171.34-31.06Z" transform="translate(0 -0.21)"/><path class="cls-6" d="M376.6,276.75S545.49,284.19,556,294c2.75,2.57,5.83,7.58,5.38,8.08-11.21,12.73-123.07-15-224-7.13,0,0,6.18-10.13,27.23-12C375.25,282.07,376.6,276.75,376.6,276.75Z" transform="translate(0 -0.21)"/><path class="cls-7" d="M599.81,343.34s10.06-2.65,17.08,4.42c0,0,15.24,3.95,22.61,2.22,3.8-.89,6.05-2.27,10.65-1.83,0,0-4.67,19,3,21.83,0,0-40.57,4-60.84,3.26,0,0-1.11,0-21.3,5.62,0,0-22,1.28-34,1.28s-50.6-1.53-53.67,0S454.21,386,437.86,383c-11.31-2.1-52.4-15.25-61.45-14.1-8.12,1-23.4,5.67-42.31-4.81s3.58-27.34,3.58-27.34l23,9.91s-5.62-22.94,3.07-26.26a23.57,23.57,0,0,1,19.87,1c3.83,2.15,13.5,8.64,16.59,12.61,3.32,4.25,16.18-8.08,25.38-11S445,316.63,457,317.21s29.39-22.68,29.39-22.68,8.69-3.32,15.33,0,6.39,1.28,11,.51a23,23,0,0,1,12.52,1c4.09,1.53,15.08-8.43,26.83-.77s14.66,11.24,14.87,13.29S583.12,341.81,599.81,343.34Z" transform="translate(0 -0.21)"/><path class="cls-8" d="M584.74,312.92s-3.63,2.24-4.75,2.34S563.74,336,567.6,349s29-8.7,29.16-9.35c1-3.06,14.12,2.24,15.24.41s1.39-6,4.1-6.19a9.18,9.18,0,0,0,0-2.34c-.2-.3,2,.3,2.44-.1s.3-2,.61-2.24,2.95,1.12,4.17.1,1.22-1.52,1.22-1.52-1-5.79-.41-6.71,2.34-1.12,2.85-1.63,1.52-5.79,1.52-6.5C628.46,305.7,600.26,285.89,584.74,312.92Z" transform="translate(0 -0.21)"/><path class="cls-9" d="M583.76,313.5s4.48-14.19,12-19.74c6.19-4.59,19.39-2.89,22.69,0s13.62,6.6,14,11.14-4,8-4,8c-.89-5.84-9.9-10.56-12.12-9.45-4,2-3.7-1.3-6.48,3.66a32.89,32.89,0,0,1-3.56,5.49s-2.85,0-1.6-4.89c.66-2.59-2.53-2.09-3.47-1.63-2.87,1.41-5.7,6.52-2.27,8.57a33.44,33.44,0,0,1-6.65,2C589.7,317.11,583.76,313.5,583.76,313.5Z" transform="translate(0 -0.21)"/><path class="cls-10" d="M596.82,323s6.53,16.07,14.26,17.55c0,0-12.9-2.33-14.65-.54-.22.23-4.67-9.45-4.06-12S596.82,323,596.82,323Z" transform="translate(0 -0.21)"/><path class="cls-11" d="M615.35,330.9l-2.85-4c-.51-.71,4.06,2.54,4.06,3.15S615.35,330.9,615.35,330.9Z" transform="translate(0 -0.21)"/><path class="cls-6" d="M610.59,310.37a1.36,1.36,0,0,0-1.11,1.84,23.2,23.2,0,0,0,3,5.68c2,2.41,7.2,1.61,11.45,5.07,0,0-.22-2.59,1.92-3,0,0-.65-5.68-4.2-7.82s-4.74-2.48-8.1-2.15Z" transform="translate(0 -0.21)"/><path class="cls-1" d="M616.89,315.52s1.56,3.46,3.85,3.42c0,0,.8-1.2.7-1.69C621.21,316.09,617.37,315.3,616.89,315.52Z" transform="translate(0 -0.21)"/><path class="cls-10" d="M618.62,327.43s1.14.93,1.09,1.2.64-.81-.12-1.25S618,326.88,618.62,327.43Z" transform="translate(0 -0.21)"/><path class="cls-6" d="M561.36,301.88a184,184,0,0,1-2.17,18.7,37.18,37.18,0,0,0-.3,13.55c1,5.72,3.18,12,8.08,12.47,0,0,7.62-27.6,13-31.35,0,0-1.43-5.87-5.06-6.78s-8-2.63-8-3.8C567,301,561.36,301.88,561.36,301.88Z" transform="translate(0 -0.21)"/><path class="cls-6" d="M596.43,340s-2.84,4.51-29.46,6.62c0,0-6.87,2.12-8.68,1.82s9.94,10,26.46,6.35,15-14.57,15-14.57Z" transform="translate(0 -0.21)"/><path class="cls-10" d="M650,348.4s37.46,1.35,46,0,11-1.75,16.65-1.16,19.82-1.65,20.32-1.67c1.68-.05-.84,3.05-2.07,3.15a2.33,2.33,0,0,1-2.23,2.41s.16,1.7-2.67,2.23c0,0-.43,3.06-9.18,3.46-1.13.05-4.45,2.47-12.93,2.65-1.76,0-4.07-1.15-7.86-4.46-12.17-10.63-22.85,14.7-46,15.46S650,348.4,650,348.4Z" transform="translate(0 -0.21)"/><path class="cls-8" d="M649.51,348.13s35.55,1.35,43.65,0,10.41-1.75,15.8-1.16,10.4-.28,10.24.78c-.78,5.18-9.66,3.08-10.87,4.23-6.94,6.58-10.21,3-13.43,4.14-9.28,3.43-23.39,13.31-45.39,14.07S649.51,348.13,649.51,348.13Z" transform="translate(0 -0.21)"/><path class="cls-12" d="M545.64,331.35s6.57,17.14-2.88,30c0,0,10.59-2.43,13.45-9.25C556.21,352.06,559.61,339.49,545.64,331.35Z" transform="translate(0 -0.21)"/><polygon class="cls-13" points="570.01 350.32 560.89 349.25 551.77 348.18 557.26 340.82 562.75 333.45 566.38 341.89 570.01 350.32"/><path class="cls-14" d="M328.2,362.72s27.5,11.11,39.38,7.49-7.91-23.92-10.32-26.32-18.82-13-21.07-11.66S320.22,353.07,328.2,362.72Z" transform="translate(0 -0.21)"/><path class="cls-6" d="M337.59,365.79l-43-14a47.54,47.54,0,0,0-21.16-1.92L251,352.39a11.37,11.37,0,0,1-10.43-4.53l-5.27-7.11a3.08,3.08,0,0,1,.73-5.07l2.94-1.41a16.57,16.57,0,0,1,8.84-1.56l21.11,2.12a59,59,0,0,0,18.5-1.07c20.65-4.51,68.69-13.69,50.28,2.95C333.36,340.61,320.45,356.54,337.59,365.79Z" transform="translate(0 -0.21)"/><path class="cls-15" d="M346.76,340.61s5.17,1.08,26.94,12.6c10.15,5.37,14.53,7.81,16.65,8.33a12.46,12.46,0,0,1,4.73,2.26,21,21,0,0,0,17,4.19c12.71-2.36,22.17-8.28,25.13-8s11.53-4.73,14.48-7.69,13.55-9.68,13.55-9.68-3.12,15.82,14.6,37.83c2.27,2.82-12.48-.66-12.48-.66s-17.44-11.23-18.33-13.3-5.32-4.14-8-1.77-13.92,15.32-16.29,15-23.33-4.1-37-8.81c-12.75-4.4-19.92.66-27.51-.14,0,0,13.64.45,8.18-10.31C362.72,349.13,353.88,342.64,346.76,340.61Z" transform="translate(0 -0.21)"/><path class="cls-14" d="M525.34,308.07s6.81,2.8,7.21,10-10.82,23.64-7.21,30.45-8.81-11.62-6.81-18-11.56-11.42-16.3-11.57c-2.14-.07-.62,5.26-24.56,3.56,0,0-.4-4.81,2.8-4s22.68-3.72,21.48-12.13C502,306.36,510.36,322.86,525.34,308.07Z" transform="translate(0 -0.21)"/><path class="cls-12" d="M468.42,323s8.1-.66,9.24,1.37c0,0-5.83,8-2.71,23.43a59.93,59.93,0,0,0,17.32,31.72s-12.41,2.21-12.14,1.7-14.07-15.75-15.71-34.58C462.79,328,468.42,323,468.42,323Z" transform="translate(0 -0.21)"/><path class="cls-15" d="M644.67,370.91c-8.92.26-7.72,2.09-16.39,2.09s-26,.62-34.09.62-17.27,9.34-59,6.52c0,0,6.3-4,19.31-3.43s37.8-12.39,44-11.15,17.35,3.71,24.78,2.48c4.56-.76,11-2.34,16.29-2.85Z" transform="translate(0 -0.21)"/><path class="cls-14" d="M486.79,333.56s4.19-8.07,11.94-4,26.17,26.28,28,30.7l-14.93-.45s13.35,11.09,17.64,6S502.38,326.5,486.79,333.56Z" transform="translate(0 -0.21)"/><path class="cls-14" d="M538.74,365.79a34.89,34.89,0,0,0,19.54-10.17S555.33,371.43,538.74,365.79Z" transform="translate(0 -0.21)"/><path class="cls-8" d="M479.88,324.73a2.7,2.7,0,0,1,1.28,1.46,1.37,1.37,0,0,1-.07.84A4,4,0,0,1,476,329c-2.49-1-8-3.45-8-3.45s-3.73-1.93-1.66-4.42l-.63-1.93s-.62-3.32,1.46-4.28a1.52,1.52,0,0,0,1-1.85,3.57,3.57,0,0,1,1.19-3.76,4.46,4.46,0,0,1,.84-.48,4.49,4.49,0,0,0,1-1.52c.21-1.58,0-2.76,4.7-3.45s7.32-2.76,9.67-1.93,8.57,6.77,9.4,9.53-2.76,5.67-2.76,5.67-4.28,4.7-4.56,5.25-2.49.81-2.63-.69C485,321.64,484.35,325.11,479.88,324.73Z" transform="translate(0 -0.21)"/><path class="cls-10" d="M480.46,304.86s2.07-.8,2.72,0,6,6.34,6,6.9a2.56,2.56,0,0,1-1.39,2.89,2.85,2.85,0,0,1-3,.05c-.88-.54-6.64-4.68-7-5.44s-.65-1.52-.65,0,.33,2.18,1.09,2.29,5.12,3.2,6.34,3.94,1.72,1.94,1.5,2.48-1.35,2.67-2.94,1.63c-.33-.21-8.27-4-8.71-4.68s-1.63-1.74-1.85-.87-.65,1.42,0,1.2,1.06.76,1.74.44,9.13,4.54,9.37,4.79c.89.91.1,4.33-3,3.55-2.36-.59-8.48-4.21-8.48-4.21s.21,2.4,1.54,1.85,5.57,2.69,6.06,3.07a2.89,2.89,0,0,1,1.32,1.79c0,1,.13-1.27,2.21-2.33,1.24-.63,2.28-4.38,2.61-4.71s1.31-2.61,1.74-3.16,3.27-3.59,2.67-4.14-5.39-6.61-5.83-7.33S479.26,303.08,480.46,304.86Z" transform="translate(0 -0.21)"/><polygon class="cls-1" points="560.72 337.96 562.5 335.47 568.35 349.06 565.36 348.71 563.68 344.81 556.09 347.62 553.66 347.31 555.17 345.48 562.42 341.9 560.72 337.96"/><path class="cls-10" d="M700.44,358.31c-10.28-1.67-26.31,11.48-56,12.59-2.53-1.85-4.18-3-4.7-5.74,3.35-.33,5.62.86,7.57.8,24-.76,43.61-8.57,47-9.7C699.1,354.69,700.44,358.31,700.44,358.31Z" transform="translate(0 -0.21)"/><path class="cls-12" d="M532.57,299.54s18.7,9,19.2,15.12c0,0,8.37-.32,6.63-8.3S546.59,290.74,532.57,299.54Z" transform="translate(0 -0.21)"/><path class="cls-12" d="M486.79,299.14s11.13-2,14.13,4.75c2.37,5.34,19.58-6.77,24.6-5,0,0-3.69-4.84-14.07-1.39a15.68,15.68,0,0,1-5.74.85,6.85,6.85,0,0,1-4.89-1.9C498.13,293.35,486.63,295.6,486.79,299.14Z" transform="translate(0 -0.21)"/><path class="cls-12" d="M599.53,343.27a13.85,13.85,0,0,1-7.22,8.78s9.39-2,22.21,2.54c11.95,4.26,27.13-5.19,27.13-5.19s-3.86,1.6-11.7.73a125.57,125.57,0,0,1-13.06-2.37S611.91,341.2,599.53,343.27Z" transform="translate(0 -0.21)"/><path class="cls-12" d="M387.82,333.66S401.45,341,402,343.89s40.5-22.86,54.09-25a72.44,72.44,0,0,0-50.56,18.73C395.91,346.56,393.64,318.17,387.82,333.66Z" transform="translate(0 -0.21)"/><path class="cls-16" d="M363.58,347.77s-4-21.63,13.29-28.83c0,0-10.06-.94-25.37,1.59a40,40,0,0,1-17.27-.86,61.14,61.14,0,0,1-7.7-2.45c-1.45-.8-16.65-.47-25.38-.2A17.52,17.52,0,0,0,290,321.46c-5.39,4.84-12.05,12.13-3.75,12.54,12.49.61,40.4-1,43.36,0S363.58,347.77,363.58,347.77Z" transform="translate(0 -0.21)"/><path class="cls-10" d="M600.12,308.51s2.47-2.07,3,0a2.49,2.49,0,0,1-.6,2.21c-.3.34-.64.65-.84.65-.45,0-1.33-.4-1.53.7,0,0,2.09.37,2.86-.92S604.43,304.53,600.12,308.51Z" transform="translate(0 -0.21)"/><rect class="cls-17" x="591.96" y="464.16" width="206.34" height="235.63"/><rect class="cls-18" x="617.23" y="491.92" width="27.86" height="33.18"/><rect class="cls-18" x="659.88" y="491.92" width="27.86" height="33.18"/><rect class="cls-18" x="702.52" y="491.92" width="27.86" height="33.18"/><rect class="cls-18" x="745.17" y="491.92" width="27.86" height="33.18"/><rect class="cls-18" x="617.23" y="544.07" width="27.86" height="33.18"/><rect class="cls-18" x="659.88" y="544.07" width="27.86" height="33.18"/><rect class="cls-18" x="702.52" y="544.07" width="27.86" height="33.18"/><rect class="cls-18" x="745.17" y="544.07" width="27.86" height="33.18"/><rect class="cls-18" x="617.23" y="596.21" width="27.86" height="33.18"/><rect class="cls-18" x="659.88" y="596.21" width="27.86" height="33.18"/><rect class="cls-18" x="702.52" y="596.21" width="27.86" height="33.18"/><rect class="cls-18" x="745.17" y="596.21" width="27.86" height="33.18"/><rect class="cls-18" x="617.23" y="648.36" width="27.86" height="33.18"/><rect class="cls-18" x="659.88" y="648.36" width="27.86" height="33.18"/><rect class="cls-18" x="702.52" y="648.36" width="27.86" height="33.18"/><rect class="cls-18" x="745.17" y="648.36" width="27.86" height="33.18"/><rect class="cls-17" x="591.96" y="448.58" width="206.34" height="7.45"/><rect class="cls-17" x="601.24" y="454.68" width="9.29" height="10.16"/><rect class="cls-17" x="619.19" y="454.68" width="9.29" height="10.16"/><rect class="cls-17" x="637.15" y="454.68" width="9.29" height="10.16"/><rect class="cls-17" x="655.1" y="454.68" width="9.29" height="10.16"/><rect class="cls-17" x="673.05" y="454.68" width="9.29" height="10.16"/><rect class="cls-17" x="691" y="454.68" width="9.29" height="10.16"/><rect class="cls-17" x="708.95" y="454.68" width="9.29" height="10.16"/><rect class="cls-17" x="726.91" y="454.68" width="9.29" height="10.16"/><rect class="cls-17" x="744.86" y="454.68" width="9.29" height="10.16"/><rect class="cls-17" x="762.81" y="454.68" width="9.29" height="10.16"/><rect class="cls-17" x="780.76" y="454.68" width="9.29" height="10.16"/><path class="cls-3" d="M621.66,102.1a38.15,38.15,0,0,1-2.19,4.22c-.8,1.34-1.43,2.24-1.65,2.66a24.56,24.56,0,0,1-4.44,6,42.58,42.58,0,0,1-3.85,3.37c-4.34,3.42-8.71,6.23-10.93,12.36A39.66,39.66,0,0,0,597,136.2a47.63,47.63,0,0,0-.94,8c-.08,1.86-.08,3.72-.09,5.61,0,20.7,12.58,32.46,10.18,34-1.8,1.15-11.36-3.86-18.29-12.39q-1-1.23-1.92-2.55a33.64,33.64,0,0,1-3-5.29,27.43,27.43,0,0,1-1.15-2.88,43.64,43.64,0,0,1-1.36-5,52.19,52.19,0,0,1-1.06-8.32c-.1-2-.09-3.89,0-5.77a84.56,84.56,0,0,1,3.89-21c.42-1.35.81-2.49,1.11-3.4s.66-1.94,1-2.82c3-8.32,4.86-11.47,5.49-17.87a30.62,30.62,0,0,0-.26-8.2c-.14-.82-.32-1.62-.52-2.4a40,40,0,0,0-3.61-8.8c-1.05-2-2.22-3.93-3.44-6-.82-1.37-1.66-2.77-2.5-4.24-2.28-4-3.73-6.7-4.78-8.87-.67-1.37-1.19-2.52-1.66-3.63-1.29-3-2.27-5.78-5.33-12-.72-1.46-1.48-3-2.22-4.56-.31-.69-.63-1.39-.94-2.1A48.88,48.88,0,0,1,561,15.17c0-4.2,1-8.67,2.9-15h40c-1,6,0,11.5,1,16.32,1.21,5.67,2.55,10.85,3.92,15.62q.77,2.65,1.54,5.13c1.1,3.56,2.21,6.88,3.26,10l1.62,4.64c.39,1.11.75,2.17,1.11,3.18,1.57,4.57,2.8,8.22,3.76,11.21.53,1.63,1,3,1.36,4.32a69.11,69.11,0,0,1,2.8,12.56c0,.12,0,.25,0,.37.12.85.21,1.69.26,2.5A33.83,33.83,0,0,1,621.66,102.1Z" transform="translate(0 -0.21)"/><polygon class="cls-3" points="614.17 154.8 585.06 137.31 589.2 134.62 593.34 131.93 614.17 154.8"/><polygon class="cls-3" points="626.65 28.08 596.91 44.49 596.66 39.55 596.41 34.62 626.65 28.08"/><polygon class="cls-3" points="642.45 46.82 609.99 56.8 610.75 51.92 611.52 47.04 642.45 46.82"/><polygon class="cls-3" points="559.36 40.53 585.75 19.17 586.87 23.98 587.98 28.79 559.36 40.53"/><polygon class="cls-3" points="566.22 65.13 585.96 37.49 588.32 41.83 590.67 46.18 566.22 65.13"/><polygon class="cls-3" points="572.63 178.62 594.11 162.49 593.54 165.58 592.98 168.67 572.63 178.62"/><polygon class="cls-3" points="564.1 85.14 591.2 64.68 592.15 69.53 593.1 74.37 564.1 85.14"/><polygon class="cls-3" points="563.04 110.25 596.5 116.03 593.62 120.03 590.73 124.04 563.04 110.25"/><polygon class="cls-3" points="582.25 89 613.46 75.6 613.23 80.54 612.99 85.47 582.25 89"/><polygon class="cls-3" points="560.47 148.01 592.5 136.72 591.93 141.63 591.37 146.54 560.47 148.01"/><polygon class="cls-3" points="562.79 166.4 592.64 147.86 592.49 151 582.3 164.16 562.79 166.4"/><polygon class="cls-3" points="634.74 70.06 600.78 70.89 602.84 66.39 604.89 61.9 634.74 70.06"/><polygon class="cls-3" points="632.73 85.61 598.78 86.44 600.83 81.95 602.89 77.46 632.73 85.61"/><polygon class="cls-3" points="631.74 114.84 604.07 95.16 608.4 92.79 612.74 90.43 631.74 114.84"/><polygon class="cls-3" points="616.97 128.49 600.89 106.14 605.38 103.78 609.88 101.41 616.97 128.49"/><path class="cls-4" d="M573.75,18c.11,2.95-1,5.4-2.55,5.47s-2.85-2.26-3-5.21,1-5.4,2.55-5.47S573.64,15.1,573.75,18Z" transform="translate(0 -0.21)"/><path class="cls-4" d="M585.3,27.88c.4,2.42-.08,4.52-1.07,4.69s-2.12-1.65-2.52-4.06.08-4.52,1.07-4.69S584.9,25.46,585.3,27.88Z" transform="translate(0 -0.21)"/><path class="cls-4" d="M591.11,14.69c0,2.19-.86,4-1.84,4s-1.76-1.78-1.73-4,.86-4,1.84-4S591.14,12.5,591.11,14.69Z" transform="translate(0 -0.21)"/><path class="cls-4" d="M578.72,39.91c.66,1.92.37,3.78-.66,4.14s-2.39-.9-3.05-2.83-.37-3.78.66-4.14S578.05,38,578.72,39.91Z" transform="translate(0 -0.21)"/><path class="cls-4" d="M590.94,43.29c.74,2.15.59,4.16-.33,4.48s-2.27-1.15-3-3.3-.59-4.16.33-4.48S590.21,41.14,590.94,43.29Z" transform="translate(0 -0.21)"/><path class="cls-4" d="M586.38,52.51c.74,2.15.71,4.11-.06,4.39s-2-1.25-2.74-3.4-.71-4.11.06-4.39S585.64,50.36,586.38,52.51Z" transform="translate(0 -0.21)"/><path class="cls-4" d="M603,41.14c.46,1.34.29,2.61-.37,2.84s-1.57-.66-2-2-.29-2.61.37-2.84S602.58,39.81,603,41.14Z" transform="translate(0 -0.21)"/><path class="cls-4" d="M595.68,59.22c.82,1.61,1,3.18.36,3.51s-1.8-.72-2.62-2.33-1-3.18-.36-3.51S594.86,57.61,595.68,59.22Z" transform="translate(0 -0.21)"/><path class="cls-3" d="M807.23,60.37a49,49,0,0,1-4.59,20.54c-.31.71-.63,1.41-1,2.1-.73,1.58-1.49,3.1-2.21,4.56-3.06,6.18-4,8.92-5.33,12h0c-.47,1.11-1,2.26-1.65,3.63-1,2.17-2.5,4.89-4.79,8.87-.84,1.46-1.68,2.87-2.49,4.23-1.22,2-2.4,4-3.45,6a40.12,40.12,0,0,0-3.61,8.82c-.21.78-.38,1.57-.52,2.39a30.62,30.62,0,0,0-.26,8.2c.63,6.4,2.53,9.55,5.48,17.86.32.88.64,1.82,1,2.82s.68,2.06,1.1,3.41a84.69,84.69,0,0,1,3.9,21c.09,1.88.1,3.81,0,5.77a53.37,53.37,0,0,1-1.06,8.32,48.17,48.17,0,0,1-1.36,5,27.41,27.41,0,0,1-1.15,2.88,33.64,33.64,0,0,1-3,5.29q-.91,1.32-1.92,2.55c-6.93,8.52-16.5,13.54-18.3,12.39-2.39-1.53,10.21-13.28,10.19-34,0-1.89,0-3.74-.08-5.61a48.61,48.61,0,0,0-1-8,38.31,38.31,0,0,0-1.56-5.47c-2.22-6.14-6.6-9-10.94-12.37a42.59,42.59,0,0,1-3.85-3.37,24.47,24.47,0,0,1-4.43-6c-.22-.42-.85-1.32-1.65-2.66a41,41,0,0,1-2.19-4.22,33.83,33.83,0,0,1-2.92-16.08c0-.81.14-1.65.26-2.5,0-.12,0-.25.05-.37a69.17,69.17,0,0,1,2.8-12.57c.38-1.27.83-2.69,1.35-4.31,1-3,2.19-6.65,3.77-11.22.36-1,.72-2.07,1.11-3.18.52-1.49,1.06-3,1.61-4.64,1.06-3.08,2.17-6.4,3.27-10q.78-2.47,1.53-5.13c1.38-4.77,2.71-9.95,3.92-15.62,1.27-5.89,2.51-12.82,0-20.39A29.54,29.54,0,0,0,758,31.75c-.46-.57-.85-1-1.1-1.28a32.47,32.47,0,0,1-2.76-3.74,67,67,0,0,1-5.25-10.21c-.39-.93-.78-1.9-1.15-2.89a96,96,0,0,1-4-13.42h55.13a26.09,26.09,0,0,0-4.54,11.22c-.71,4.21.67,5.55,5.17,19C804.59,45.79,807.14,53.45,807.23,60.37Z" transform="translate(0 -0.21)"/><polygon class="cls-3" points="743.06 37.91 776.85 23.48 774.07 16.15 771.28 8.82 743.06 37.91"/><polygon class="cls-3" points="754.06 200.01 783.17 182.52 779.03 179.82 774.89 177.13 754.06 200.01"/><polygon class="cls-3" points="741.58 73.29 771.32 89.69 771.57 84.76 771.82 79.83 741.58 73.29"/><polygon class="cls-3" points="725.78 92.02 758.24 102.01 757.48 97.13 756.71 92.25 725.78 92.02"/><polygon class="cls-3" points="808.87 85.74 782.47 64.37 781.36 69.19 780.25 74 808.87 85.74"/><polygon class="cls-3" points="738.5 18.89 771.45 10.68 768.28 6.89 765.1 3.1 738.5 18.89"/><polygon class="cls-3" points="802.01 110.33 782.27 82.7 779.91 87.04 777.56 91.38 802.01 110.33"/><polygon class="cls-3" points="795.59 223.82 774.12 207.69 774.69 210.78 775.25 213.87 795.59 223.82"/><polygon class="cls-3" points="804.13 130.35 777.03 109.88 776.08 114.73 775.13 119.58 804.13 130.35"/><polygon class="cls-3" points="805.19 155.45 771.73 161.23 774.61 165.24 777.5 169.25 805.19 155.45"/><polygon class="cls-3" points="785.98 134.21 754.77 120.81 755 125.74 755.24 130.68 785.98 134.21"/><polygon class="cls-3" points="807.76 193.22 775.73 181.93 776.29 186.84 776.86 191.75 807.76 193.22"/><polygon class="cls-3" points="805.44 211.61 775.59 193.07 775.74 196.2 785.93 209.37 805.44 211.61"/><polygon class="cls-3" points="733.49 115.27 767.45 116.09 765.39 111.6 763.34 107.11 733.49 115.27"/><polygon class="cls-3" points="735.5 130.82 769.45 131.65 767.4 127.16 765.34 122.66 735.5 130.82"/><polygon class="cls-3" points="736.49 160.05 764.16 140.36 759.82 138 755.49 135.63 736.49 160.05"/><polygon class="cls-3" points="751.25 173.7 767.34 151.35 762.85 148.98 758.35 146.62 751.25 173.7"/><path class="cls-4" d="M776,16.9c-.75-3.4-3.38-5.95-5.89-5.69s-3.93,3.22-3.19,6.62,3.38,5.95,5.89,5.69S776.72,20.3,776,16.9Z" transform="translate(0 -0.21)"/><path class="cls-4" d="M777.66,5.73c-1.8.09-3.54-2.3-3.89-5.35,0-.06,0-.12,0-.17h6.55C780.6,3.19,779.43,5.64,777.66,5.73Z" transform="translate(0 -0.21)"/><path class="cls-4" d="M765.56,3.85a2.51,2.51,0,0,1-1.42.54,2.66,2.66,0,0,1-.74-.07,4.56,4.56,0,0,1-3-4,.13.13,0,0,0,0-.06h6.56A4.22,4.22,0,0,1,765.56,3.85Z" transform="translate(0 -0.21)"/><path class="cls-4" d="M794.48,63.25c-.11,2.95,1,5.4,2.55,5.47s2.85-2.26,3-5.21-1-5.4-2.55-5.47S794.59,60.3,794.48,63.25Z" transform="translate(0 -0.21)"/><path class="cls-4" d="M782.93,73.08c-.4,2.42.08,4.52,1.07,4.69s2.12-1.65,2.52-4.06-.08-4.52-1.07-4.69S783.33,70.67,782.93,73.08Z" transform="translate(0 -0.21)"/><path class="cls-4" d="M777.12,59.89c0,2.19.86,4,1.84,4s1.76-1.78,1.73-4-.86-4-1.84-4S777.09,57.7,777.12,59.89Z" transform="translate(0 -0.21)"/><path class="cls-4" d="M789.51,85.11c-.66,1.92-.37,3.78.66,4.14s2.39-.9,3.05-2.83.37-3.78-.66-4.14S790.17,83.19,789.51,85.11Z" transform="translate(0 -0.21)"/><path class="cls-4" d="M777.29,88.49c-.74,2.15-.59,4.16.33,4.48s2.27-1.15,3-3.3.59-4.16-.33-4.48S778,86.34,777.29,88.49Z" transform="translate(0 -0.21)"/><path class="cls-4" d="M781.85,97.72c-.74,2.15-.71,4.11.06,4.39s2-1.25,2.74-3.4.71-4.11-.06-4.39S782.59,95.57,781.85,97.72Z" transform="translate(0 -0.21)"/><path class="cls-4" d="M765.19,86.35c-.46,1.34-.29,2.61.37,2.84s1.57-.66,2-2,.29-2.61-.37-2.84S765.65,85,765.19,86.35Z" transform="translate(0 -0.21)"/><path class="cls-4" d="M772.55,104.43c-.82,1.61-1,3.18-.36,3.51s1.8-.72,2.62-2.33,1-3.18.36-3.51S773.37,102.81,772.55,104.43Z" transform="translate(0 -0.21)"/><path class="cls-4" d="M779.12,189.73c-.23,1.4,0,2.62.62,2.72s1.23-1,1.46-2.35,0-2.62-.62-2.72S779.35,188.33,779.12,189.73Z" transform="translate(0 -0.21)"/><path class="cls-4" d="M782.93,196.7c-.38,1.11-.21,2.19.38,2.4s1.39-.52,1.77-1.64.21-2.19-.38-2.4S783.31,195.59,782.93,196.7Z" transform="translate(0 -0.21)"/><path class="cls-4" d="M775.85,198.66c-.43,1.25-.34,2.41.19,2.6s1.31-.67,1.74-1.91.34-2.41-.19-2.6S776.27,197.42,775.85,198.66Z" transform="translate(0 -0.21)"/><rect class="cls-19" x="40.86" y="605.1" width="494.69" height="57.82" rx="13.72" ry="13.72"/><text class="cls-20" transform="translate(238.37 646.45)">S<tspan class="cls-21" x="18.83" y="0">P</tspan><tspan class="cls-22" x="35.93" y="0">A</tspan><tspan x="58.73" y="0">CE</tspan></text><text class="cls-23" transform="translate(38.79 122.12)">ENIGMA NEEDS YOUR HELP</text><text class="cls-24" transform="translate(36.79 177.12)">During the alien invasion, <tspan x="0" y="30">Enigma lost his sight. </tspan><tspan x="0" y="60">He needs your guidance </tspan><tspan x="0" y="90">to avoid crashing </tspan><tspan x="0" y="120">into the buildings </tspan><tspan x="0" y="150">and dodging</tspan><tspan x="0" y="180">those pesky </tspan><tspan x="0" y="210">alien tentacles.</tspan></text><text class="cls-25" transform="translate(47.08 584.57)"><tspan class="cls-26">T</tspan><tspan x="8.23" y="0">AP S</tspan><tspan class="cls-27" x="44.28" y="0">P</tspan><tspan class="cls-28" x="53.02" y="0">A</tspan><tspan x="64.66" y="0">CE BAR</tspan><tspan class="cls-29" x="122.69" y="0"> </tspan><tspan class="cls-30" x="126.03" y="0">T</tspan><tspan class="cls-31" x="135.19" y="0">O HELP ENIG</tspan><tspan class="cls-32" x="238.46" y="0">M</tspan><tspan x="253.95" y="0">A N</tspan><tspan class="cls-33" x="282.84" y="0">A</tspan><tspan x="293.74" y="0">VIG</tspan><tspan class="cls-34" x="321.88" y="0">A</tspan><tspan x="332.32" y="0">TE HIS</tspan><tspan class="cls-35" x="382.72" y="0"> </tspan><tspan class="cls-36" x="386.15" y="0">W</tspan><tspan class="cls-37" x="401.54" y="0">A</tspan><tspan x="411.93" y="0">Y SAFE</tspan><tspan class="cls-38" x="467.25" y="0">L</tspan><tspan class="cls-39" x="474.82" y="0">Y!</tspan></text></svg>