<svg id="Layer_2" data-name="Layer 2" xmlns="http://www.w3.org/2000/svg" viewBox="0 0 165.6 528"><defs><style>.cls-1{fill:#647233;}.cls-2{fill:#d3ce71;}</style></defs><title>tentacles</title><path class="cls-1" d="M131.68,327.18c4.32,28.82-11.09,48.08-12.87,51.48-11,20.93-30.79,22.61-38.3,43.35-5,13.86-5.14,25.56-5.15,37.93,0,41.27,25.07,64.69,20.29,67.73S56.86,510.94,47,481.61c-11.9-35.6.77-73.59,5.15-86.7,7-20.93,11.48-27.11,12.87-41.22,2.39-24.42-9-38.86-20.59-59C29.07,267.83,32.84,269.79,21,245.89,13.84,231.36,5.32,214.12,5.58,191.7c.17-13.8,5.26-29.07,15.45-59.6,9-26.88,11.72-29.56,10.29-37.94C28,74.85,20.66,73.36,10.44,50.81,4.86,38.51,2.28,15.26,5.64,0H127.5C149,39.15,125.21,110,106,132.1a60.52,60.52,0,0,0-12.87,21.67c-5,15.08-2.52,28.89,0,40.64,6.25,29.19,14.14,52,20.59,70.45C129.67,310.65,130,315.67,131.68,327.18Z" transform="translate(-2.31)"/><polygon class="cls-1" points="131.16 147.34 63.82 118.58 69.37 103.98 74.91 89.37 131.16 147.34"/><polygon class="cls-1" points="109.24 470.39 51.22 435.54 59.47 430.17 67.73 424.8 109.24 470.39"/><polygon class="cls-1" points="134.1 217.85 74.84 250.55 74.34 240.72 73.84 230.88 134.1 217.85"/><polygon class="cls-1" points="165.6 255.19 100.91 275.09 102.43 265.36 103.95 255.63 165.6 255.19"/><polygon class="cls-1" points="0 242.67 52.61 200.08 54.83 209.68 57.04 219.27 0 242.67"/><polygon class="cls-1" points="140.25 109.45 74.58 93.07 80.9 85.53 87.23 77.98 140.25 109.45"/><polygon class="cls-1" points="13.67 291.68 53.02 236.6 57.71 245.26 62.41 253.91 13.67 291.68"/><polygon class="cls-1" points="26.46 517.86 69.26 485.71 68.13 491.87 67 498.03 26.46 517.86"/><polygon class="cls-1" points="9.45 331.57 63.47 290.78 65.36 300.45 67.25 310.11 9.45 331.57"/><polygon class="cls-1" points="7.33 381.6 74.03 393.12 68.28 401.11 62.52 409.09 7.33 381.6"/><polygon class="cls-1" points="45.63 339.26 107.83 312.56 107.36 322.39 106.89 332.23 45.63 339.26"/><polygon class="cls-1" points="2.21 456.87 66.05 434.37 64.93 444.15 63.8 453.93 2.21 456.87"/><polygon class="cls-1" points="6.85 493.51 66.33 456.56 66.03 462.81 45.73 489.05 6.85 493.51"/><polygon class="cls-1" points="150.22 301.51 82.56 303.16 86.66 294.21 90.75 285.25 150.22 301.51"/><polygon class="cls-1" points="146.22 332.51 78.56 334.16 82.66 325.21 86.75 316.25 146.22 332.51"/><polygon class="cls-1" points="144.26 390.76 89.11 351.53 97.75 346.81 106.39 342.1 144.26 390.76"/><polygon class="cls-1" points="114.83 417.96 82.78 373.43 91.73 368.71 100.68 363.99 114.83 417.96"/><path class="cls-2" d="M67.87,105.06c1.49-6.78,6.74-11.85,11.74-11.34s7.84,6.42,6.35,13.2-6.74,11.85-11.74,11.34S66.38,111.84,67.87,105.06Z" transform="translate(-2.31)"/><path class="cls-2" d="M59.28,71.47C60,65.39,63.45,60.61,67,60.79S73,66,72.27,72.13,68.09,83,64.5,82.81,58.57,77.55,59.28,71.47Z" transform="translate(-2.31)"/><path class="cls-2" d="M85.94,71.26c.54-4.71,3.89-8.39,7.48-8.21s6.05,4.15,5.51,8.86S95,80.3,91.45,80.12,85.39,76,85.94,71.26Z" transform="translate(-2.31)"/><path class="cls-2" d="M45.26,42.78c.61-5.27,3.29-9.42,6-9.29S55.65,38,55,43.28s-3.29,9.42-6,9.29S44.65,48,45.26,42.78Z" transform="translate(-2.31)"/><path class="cls-2" d="M79.4,37.29c.61-5.27,3.29-9.42,6-9.29s4.4,4.51,3.79,9.78-3.29,9.42-6,9.29S78.8,42.56,79.4,37.29Z" transform="translate(-2.31)"/><path class="cls-2" d="M31,197.43c.23,5.88-2,10.75-5.09,10.89s-5.69-4.51-5.91-10.38,2-10.75,5.09-10.89S30.77,191.56,31,197.43Z" transform="translate(-2.31)"/><path class="cls-2" d="M54,217c.8,4.82-.16,9-2.14,9.35s-4.23-3.28-5-8.1.16-9,2.14-9.35S53.21,212.21,54,217Z" transform="translate(-2.31)"/><path class="cls-2" d="M65.59,190.74c-.06,4.36-1.71,7.89-3.67,7.88s-3.52-3.55-3.45-7.91,1.71-7.89,3.67-7.88S65.65,186.38,65.59,190.74Z" transform="translate(-2.31)"/><path class="cls-2" d="M40.89,241c1.32,3.83.73,7.53-1.31,8.25s-4.77-1.8-6.09-5.63-.73-7.53,1.31-8.25S39.57,237.17,40.89,241Z" transform="translate(-2.31)"/><path class="cls-2" d="M65.26,247.74c1.47,4.28,1.17,8.28-.66,8.93s-4.52-2.3-6-6.58-1.17-8.28.66-8.93S63.79,243.45,65.26,247.74Z" transform="translate(-2.31)"/><path class="cls-2" d="M56.17,266.12c1.47,4.28,1.42,8.2-.11,8.74s-4-2.48-5.45-6.77-1.42-8.2.11-8.74S54.7,261.83,56.17,266.12Z" transform="translate(-2.31)"/><path class="cls-2" d="M89.37,243.46c.91,2.66.58,5.2-.74,5.67s-3.13-1.31-4-4-.58-5.2.74-5.67S88.45,240.8,89.37,243.46Z" transform="translate(-2.31)"/><path class="cls-2" d="M74.7,279.49c1.64,3.21,2,6.35.72,7s-3.58-1.43-5.23-4.64-2-6.35-.72-7S73.05,276.28,74.7,279.49Z" transform="translate(-2.31)"/></svg>